<?xml version="1.0" encoding="utf-8"?>
<!-- Generator: Adobe Illustrator 22.1.0, SVG Export Plug-In . SVG Version: 6.00 Build 0)  -->
<svg version="1.1"
	 id="svg4436" inkscape:version="0.48.4 r9939" sodipodi:docname="Follow_Spot.svg" xmlns:cc="http://creativecommons.org/ns#" xmlns:dc="http://purl.org/dc/elements/1.1/" xmlns:inkscape="http://www.inkscape.org/namespaces/inkscape" xmlns:rdf="http://www.w3.org/1999/02/22-rdf-syntax-ns#" xmlns:sodipodi="http://sodipodi.sourceforge.net/DTD/sodipodi-0.dtd" xmlns:svg="http://www.w3.org/2000/svg"
	 xmlns="http://www.w3.org/2000/svg" xmlns:xlink="http://www.w3.org/1999/xlink" x="0px" y="0px" viewBox="0 0 190 356.2"
	 style="enable-background:new 0 0 190 356.2;" xml:space="preserve">
<style type="text/css">
	.st0{fill:#FFFFFF;}
	.st1{fill:none;stroke:#231F20;stroke-width:4;stroke-linecap:round;stroke-linejoin:round;}
</style>
<sodipodi:namedview  bordercolor="#666666" borderopacity="1.0" fit-margin-bottom="0" fit-margin-left="0" fit-margin-right="0" fit-margin-top="0" id="base" inkscape:current-layer="svg4436" inkscape:cx="296.4085" inkscape:cy="94.593109" inkscape:document-units="px" inkscape:pageopacity="0" inkscape:pageshadow="2" inkscape:window-height="972" inkscape:window-maximized="1" inkscape:window-width="1280" inkscape:window-x="-8" inkscape:window-y="-8" inkscape:zoom="1.2400927" pagecolor="#000000" showgrid="false">
	</sodipodi:namedview>
<g id="etc_symbol_base" transform="translate(-2285.0832,-165.16959)">
	<path id="path3062" inkscape:connector-curvature="0" class="st0" d="M2466.9,519.2h-62.3c-3.3,0-6-2.7-6-6v-308c0-3.3,2.7-6,6-6
		h62.3c3.3,0,6,2.7,6,6v308C2472.9,516.5,2470.2,519.2,2466.9,519.2z M2381.9,202.6c16.5,16.5,16.5,43.1,0,59.6
		c-16.5,16.5-43.1,16.5-59.6,0c-16.5-16.5-16.5-43.1,0-59.6C2338.8,186.1,2365.5,186.1,2381.9,202.6z M2386,167.1
		c-8,0-16.1,3.1-22.2,9.2l-14,14c-10,0.6-19.8,4.7-27.4,12.3c-7.6,7.6-11.7,17.4-12.2,27.4l-14,14c-11.7,11.7-12.3,30.1-1.8,42.4
		c0.1,0.1,0.1,0.1,0.2,0.2c0.3,0.4,0.6,0.7,1,1.1c0.2,0.3,0.5,0.5,0.7,0.8c0.4,0.4,0.8,0.7,1.2,1.1l73.2,73.2
		c6.1,6.1,15.5,6.6,21,1.1l2.1-2.1c5.5-5.5,5.1-14.9-1.1-21l-52.1-52.1c0,0,0.1-0.1,0.1-0.1l14-14c10-0.6,19.8-4.6,27.4-12.2
		c7.6-7.6,11.7-17.4,12.3-27.4l4.4-4.4v-25.2c0-3.3,2.7-6,6-6h12.9c0.2-8.3-2.9-16.6-9.2-22.9C2402.1,170.2,2394,167.1,2386,167.1z"
		/>
	<path id="path3065" inkscape:connector-curvature="0" class="st0" d="M2347,271.6c-19.6-2.4-34.2-18.9-34.3-38.7
		c0-18,10.3-32.4,27.6-38.4c6.1-2.1,18.7-1.9,25,0.4c19.3,7,29.9,26.7,25.2,46.7c-1.7,7.4-4.8,12.8-10.4,18.4
		C2371.2,269,2359.4,273.1,2347,271.6L2347,271.6z"/>
	<path id="path3067" inkscape:connector-curvature="0" sodipodi:nodetypes="cccssssssssssscccccssccccccsssccccc" class="st0" d="
		M2401,519.9l-2.5-81.6l-0.2-78l-4.5,3.3c-3.7,2.7-8,5.6-12.1,5.6c-7,0-8.4-1.2-49.4-42.1c-21.4-21.4-40.1-40.6-41.4-42.7
		c-5.1-8-6.7-17.6-4.3-26.6c1.7-6.5,4.3-10.3,13.7-19.9c8.1-8.3,8.3-8.6,9.2-13.6c3.1-17.9,18-32,36.8-35.1
		c2.7-0.4,4.6-1.9,12.2-9.3c6.4-6.3,10.2-9.4,13.5-10.9c19.9-9.1,42.3,2.4,46.6,24l0.9,4.6l25.3,0.2l25.3,0.2l2.2,2.2l2.2,2.2
		l0.2,155.7c0.2,170.4,0.5,159.7-4.3,161.9C2467.7,521.1,2403.4,521.1,2401,519.9L2401,519.9L2401,519.9z M2398.7,261.7l-0.3-32.9
		l-3.6,5.4c-3.2,21.9-14.8,30.5-19.6,33.6c-4.3,2.8-17,6.8-20.4,6.8c-1.5,0-2.8,1.3-6.7,6.7l-6.4,7.2l27.6,28.4l28.9,30.6l0.2-29.7
		L2398.7,261.7z"/>
</g>
<g id="etc_symbol_outline" transform="translate(-2284.8677,-165.06564)">
	<path id="rect2992" inkscape:connector-curvature="0" class="st1" d="M2466.9,519.2h-62.3c-3.3,0-6-2.7-6-6v-308c0-3.3,2.7-6,6-6
		h62.3c3.3,0,6,2.7,6,6v308C2472.9,516.5,2470.2,519.2,2466.9,519.2z M2381.9,202.6c16.5,16.5,16.5,43.1,0,59.6
		c-16.5,16.5-43.1,16.5-59.6,0c-16.5-16.5-16.5-43.1,0-59.6C2338.8,186.1,2365.5,186.1,2381.9,202.6z M2386,167.1
		c-8,0-16.1,3.1-22.2,9.2l-14,14c-10,0.6-19.8,4.7-27.4,12.3c-7.6,7.6-11.7,17.4-12.2,27.4l-14,14c-11.7,11.7-12.3,30.1-1.8,42.4
		c0.1,0.1,0.1,0.1,0.2,0.2c0.3,0.4,0.6,0.7,1,1.1c0.2,0.3,0.5,0.5,0.7,0.8c0.4,0.4,0.8,0.7,1.2,1.1l73.2,73.2
		c6.1,6.1,15.5,6.6,21,1.1l2.1-2.1c5.5-5.5,5.1-14.9-1.1-21l-52.1-52.1c0,0,0.1-0.1,0.1-0.1l14-14c10-0.6,19.8-4.6,27.4-12.2
		c7.6-7.6,11.7-17.4,12.3-27.4l4.4-4.4v-25.2c0-3.3,2.7-6,6-6h12.9c0.2-8.3-2.9-16.6-9.2-22.9C2402.1,170.2,2394,167.1,2386,167.1z"
		/>
</g>
</svg>
